/* XPM */
static char * icon_xpm[] = {
"32 32 382 2",
"  	c None",
". 	c #640202",
"+ 	c #7F0206",
"@ 	c #850203",
"# 	c #840204",
"$ 	c #830205",
"% 	c #860202",
"& 	c #820202",
"* 	c #650202",
"= 	c #775F5F",
"- 	c #797979",
"; 	c #767676",
"> 	c #770202",
", 	c #960204",
"' 	c #9B0203",
") 	c #961F22",
"! 	c #973E41",
"~ 	c #A34848",
"{ 	c #9F4749",
"] 	c #983F40",
"^ 	c #972021",
"/ 	c #9A0204",
"( 	c #970202",
"_ 	c #760202",
": 	c #754242",
"< 	c #725454",
"[ 	c #705252",
"} 	c #5B0203",
"| 	c #5D0202",
"1 	c #710202",
"2 	c #A10202",
"3 	c #C90202",
"4 	c #CB0202",
"5 	c #BD5F62",
"6 	c #C3C1C6",
"7 	c #E2E2E2",
"8 	c #DFDFDF",
"9 	c #C4C4C4",
"0 	c #C16262",
"a 	c #CD0202",
"b 	c #C50202",
"c 	c #9E0202",
"d 	c #6F0202",
"e 	c #610202",
"f 	c #5E0308",
"g 	c #BF6262",
"h 	c #DEDEDE",
"i 	c #6B0202",
"j 	c #5A0202",
"k 	c #B26242",
"l 	c #AF6141",
"m 	c #A05136",
"n 	c #660607",
"o 	c #5E0305",
"p 	c #7D0203",
"q 	c #8E0202",
"r 	c #9C0202",
"s 	c #C40202",
"t 	c #DA0202",
"u 	c #DE0202",
"v 	c #C96262",
"w 	c #E0E0E0",
"x 	c #C3C2C5",
"y 	c #C65F62",
"z 	c #DD0202",
"A 	c #D90202",
"B 	c #980202",
"C 	c #8C0202",
"D 	c #7F0202",
"E 	c #620202",
"F 	c #650504",
"G 	c #A05135",
"H 	c #AA5E3E",
"I 	c #C07249",
"J 	c #BE7148",
"K 	c #AE603D",
"L 	c #610604",
"M 	c #5E0202",
"N 	c #840202",
"O 	c #9D0202",
"P 	c #A30202",
"Q 	c #B10202",
"R 	c #B90202",
"S 	c #BC0202",
"T 	c #832C3F",
"U 	c #57577B",
"V 	c #626286",
"W 	c #646488",
"X 	c #56557C",
"Y 	c #812A3F",
"Z 	c #BB0202",
"` 	c #B40202",
" .	c #A00202",
"..	c #850202",
"+.	c #650604",
"@.	c #AD5E3B",
"#.	c #BB6F46",
"$.	c #CA7E4E",
"%.	c #B96B42",
"&.	c #610605",
"*.	c #9A0202",
"=.	c #9B0202",
"-.	c #4A0224",
";.	c #030241",
">.	c #020242",
",.	c #4B0223",
"'.	c #660605",
").	c #B86940",
"!.	c #C97D4D",
"~.	c #CE8450",
"{.	c #CD834F",
"].	c #BC6E42",
"^.	c #950205",
"/.	c #80020D",
"(.	c #490224",
"_.	c #05023F",
":.	c #040240",
"<.	c #4A0223",
"[.	c #980203",
"}.	c #E29E5A",
"|.	c #E19D59",
"1.	c #CC844A",
"2.	c #660705",
"3.	c #740212",
"4.	c #0D023D",
"5.	c #8D0209",
"6.	c #830202",
"7.	c #760212",
"8.	c #8A0209",
"9.	c #5C0202",
"0.	c #600705",
"a.	c #CB844A",
"b.	c #F4BC78",
"c.	c #F2BB77",
"d.	c #DB9E64",
"e.	c #670806",
"f.	c #8F0208",
"g.	c #670218",
"h.	c #AF0205",
"i.	c #852E3C",
"j.	c #5D5D76",
"k.	c #6B6B83",
"l.	c #696981",
"m.	c #5F5F77",
"n.	c #85313E",
"o.	c #B20205",
"p.	c #680218",
"q.	c #8E0208",
"r.	c #5B0202",
"s.	c #640806",
"t.	c #D99A62",
"u.	c #F1B976",
"v.	c #FEE0BD",
"w.	c #FEE0BC",
"x.	c #E6BFA1",
"y.	c #640A09",
"z.	c #A20202",
"A.	c #B20202",
"B.	c #D20202",
"C.	c #D70202",
"D.	c #B65255",
"E.	c #A8A7AB",
"F.	c #C2C2C2",
"G.	c #C1C1C1",
"H.	c #BFBFBF",
"I.	c #ABABAB",
"J.	c #B85656",
"K.	c #D60202",
"L.	c #D40202",
"M.	c #670A09",
"N.	c #E4BB9F",
"O.	c #FDDEBC",
"P.	c #FFF8FF",
"Q.	c #FEF5FC",
"R.	c #DFC7CB",
"S.	c #5F0909",
"T.	c #A90202",
"U.	c #CC0202",
"V.	c #E30202",
"W.	c #C95F62",
"X.	c #C4C3C5",
"Y.	c #CA6162",
"Z.	c #670909",
"`.	c #D6B4B2",
" +	c #EBD2CF",
".+	c #5B0302",
"++	c #600202",
"@+	c #810204",
"#+	c #940206",
"$+	c #A20205",
"%+	c #CA6262",
"&+	c #E1E1E1",
"*+	c #C95E62",
"=+	c #920206",
"-+	c #7E0204",
";+	c #640504",
">+	c #9F5035",
",+	c #BC755A",
"'+	c #340224",
")+	c #170239",
"!+	c #450229",
"~+	c #C5C5C6",
"{+	c #CC6262",
"]+	c #E60202",
"^+	c #43022C",
"/+	c #170238",
"(+	c #330222",
"_+	c #260229",
":+	c #350231",
"<+	c #C6C6C6",
"[+	c #CB6262",
"}+	c #E40202",
"|+	c #340232",
"1+	c #250228",
"2+	c #360230",
"3+	c #E10202",
"4+	c #5F0202",
"5+	c #280229",
"6+	c #33022F",
"7+	c #BD0202",
"8+	c #D80202",
"9+	c #C86162",
"0+	c #C3C3C4",
"a+	c #C76262",
"b+	c #DC0202",
"c+	c #DB0202",
"d+	c #BE0202",
"e+	c #300232",
"f+	c #270229",
"g+	c #2B022F",
"h+	c #C80202",
"i+	c #BE5F62",
"j+	c #C2C0C4",
"k+	c #280232",
"l+	c #250229",
"m+	c #BD5E62",
"n+	c #6F020C",
"o+	c #61021A",
"p+	c #290232",
"q+	c #330232",
"r+	c #350232",
"s+	c #321A4A",
"t+	c #333363",
"u+	c #393969",
"v+	c #3A3A6A",
"w+	c #343261",
"x+	c #321948",
"y+	c #6C020C",
"z+	c #B26243",
"A+	c #B06141",
"B+	c #994930",
"C+	c #600403",
"D+	c #B70202",
"E+	c #9E0209",
"F+	c #5C021E",
"G+	c #70021E",
"H+	c #74021E",
"I+	c #73021E",
"J+	c #75021E",
"K+	c #74021D",
"L+	c #73021D",
"M+	c #72021E",
"N+	c #5A021E",
"O+	c #9F0209",
"P+	c #940202",
"Q+	c #640403",
"R+	c #A04C33",
"S+	c #AD5F3F",
"T+	c #A25237",
"U+	c #620504",
"V+	c #A40202",
"W+	c #BF0202",
"X+	c #CE0202",
"Y+	c #C70202",
"Z+	c #C10202",
"`+	c #A75439",
" @	c #AF6040",
".@	c #B66744",
"+@	c #AA593B",
"@@	c #5F0604",
"#@	c #A60202",
"$@	c #D10202",
"%@	c #C20202",
"&@	c #BE0808",
"*@	c #B61212",
"=@	c #BF1919",
"-@	c #BE1818",
";@	c #BF0909",
">@	c #D00202",
",@	c #AA583A",
"'@	c #B66644",
")@	c #BB6C43",
"!@	c #832424",
"~@	c #575757",
"{@	c #7D7D7D",
"]@	c #852626",
"^@	c #E20202",
"/@	c #B00202",
"(@	c #C67A4A",
"_@	c #DE9858",
":@	c #DC9757",
"<@	c #C98049",
"[@	c #E00202",
"}@	c #9A3232",
"|@	c #666666",
"1@	c #787878",
"2@	c #7C7C7C",
"3@	c #686868",
"4@	c #9A3333",
"5@	c #AF0202",
"6@	c #C87F48",
"7@	c #DA9454",
"8@	c #E50202",
"9@	c #9F3535",
"0@	c #696969",
"a@	c #777777",
"b@	c #7E7E7E",
"c@	c #6C6C6C",
"d@	c #9E3535",
"e@	c #640705",
"f@	c #E09C58",
"g@	c #EEB36F",
"h@	c #EDB26E",
"i@	c #D6965C",
"j@	c #630806",
"k@	c #9F0202",
"l@	c #A33A3A",
"m@	c #8E8E8E",
"n@	c #919191",
"o@	c #A23A3A",
"p@	c #CA0202",
"q@	c #AA0202",
"r@	c #D7965C",
"s@	c #FED8A7",
"t@	c #FDD8A6",
"u@	c #E4B78D",
"v@	c #600A08",
"w@	c #A94141",
"x@	c #8A8A8A",
"y@	c #A9A9A9",
"z@	c #AA4141",
"A@	c #670A08",
"B@	c #E5B78D",
"C@	c #FAEFF3",
"D@	c #E3CDD1",
"E@	c #600A0B",
"F@	c #A84042",
"G@	c #848488",
"H@	c #9C9CA0",
"I@	c #A94042",
"J@	c #670A0B",
"K@	c #E4CDD1",
"L@	c #AE644D",
"M@	c #5D0605",
"N@	c #6A0202",
"O@	c #700202",
"P@	c #7B0202",
"Q@	c #690A28",
"R@	c #13134B",
"S@	c #16164E",
"T@	c #6A0A28",
"U@	c #7A0202",
"V@	c #650605",
"W@	c #AF644D",
"X@	c #5B0303",
"Y@	c #964125",
"Z@	c #B76A3C",
"`@	c #B8663A",
" #	c #B75436",
".#	c #76322F",
"+#	c #6F3030",
"@#	c #624550",
"##	c #616175",
"$#	c #737387",
"%#	c #76768A",
"&#	c #62444F",
"*#	c #6E2F2F",
"=#	c #773531",
"-#	c #B35233",
";#	c #BA673C",
">#	c #B86C3D",
",#	c #630303",
"                    . + @ # $ % % $ @ # $ & * = - ;             ",
"                    > , ' ) ! ~ ~ { ] ^ / ( _ : < [             ",
"              } | 1 2 3 4 5 6 7 7 8 9 0 a b c d e e             ",
"              f | 1 2 3 4 g 9 h h h 9 0 a b 2 i j j             ",
"    k l m n o p q r s t u v 9 h h w x y z A s B C D E F G H k   ",
"    I J K L M N O P Q R S T U V V W X Y S Z `  .r ..M +.@.#.I   ",
"    $.$.%.&.e ..O O *.=.r -.;.;.>.>.;.,.r r r r O N M '.).!.$.  ",
"    ~.{.].'.E % O ^./.' =.(.;._.>.;.:.<.*.[./.^.O % E '.].{.~.  ",
"    }.|.1.2.E N *.3.4.5.=.(.;._.>._.;.(.=.5.4.3.*.N E 2.1.|.}.  ",
"    }.|.1.2.| 6.O 7.4.8.O -.>.;.>.;.>.(.=.5.4.3.r 6.9.0.a.|.}.  ",
"    b.c.d.e.9.6.c f.g.h.Z i.j.k.k.l.m.n.R o.p.q.O 6.r.s.t.u.b.  ",
"    v.w.x.y.r.6.c z.A.B.C.D.E.F.G.H.I.J.K.L.A.z.O N M M.N.O.v.  ",
"    P.Q.R.S.9.N c T.U.V.V.W.x w h 8 X.Y.V.V.U.T.r N E Z.`. +P.  ",
"          .+++@+#+$+U.V.V.%+9 h h &+6 *+V.V.U.$+=+-+E ;+>+l ,+  ",
"          e E '+)+!+U.V.V.%+9 h h &+~+{+]+V.U.^+/+(+9.E         ",
"          9.9._+;.:+U.V.V.%+9 h h &+<+[+}+V.U.|+;.1+9.E         ",
"          j | _+;.2+U.3+}+[+9 h w 7 <+%+V.V.U.|+>._+4+E         ",
"          j ++5+:.6+7+8+z 9+0+h &+7 <+a+b+c+d+e+>.f+++E         ",
"          j ++5+:.g+c h+4 i+j+h h &+~+g 4 h+c k+>.l+9.E         ",
"          j ++5+>.k+O b a 0 9 h h &+6 m+4 h+c k+>.l+9.E         ",
"          j ++n+7.o+p+q+r+s+t+u+u+v+w+x+|+|+p+o+3.y+++E         ",
"    z+A+B+C+e ( D+E+F+G+H+H+I+J+J+I+K+L+I+M+N+O+D+P+M Q+R+S+z+  ",
"    k A+T+U+e V+U.W+2 b a U.4 X+X+U.4 4 U.Y+c Z+a 2 M F `+ @k   ",
"    .@.@+@@@e #@$@%@2 b a &@*@=@-@-@*@;@a b c s >@V+E +.,@'@.@  ",
"    $.$.)@'.E A.}+$@2 b a !@~@{@; ; ~@]@a b 2 $@^@/@E '.).(@$.  ",
"    _@:@<@2.| /@}+$@P C.[@}@|@1@2@2@3@4@[@C.P $@}+5@9.0.6@7@_@  ",
"    }.|.1.2.++5@}+B.2 t 8@9@0@a@b@b@c@d@}+z P $@}+5@r.e@1.f@}.  ",
"    g@h@i@j@M T.t 4 k@b+}+l@a@m@n@n@1@o@V.u z.p@c+q@M e.r@h@g@  ",
"    s@t@u@v@9.2 X+Z+k@u V.w@x@y@y@y@x@z@}+u k@Z+X+P ++A@B@t@s@  ",
"    C@C@D@E@++k@Y+S  .z ^@F@G@H@H@H@G@I@}+b+k@S Y+O 9.J@K@C@C@  ",
"    ,+,+L@M@++N@O@P@2 4 X+Q@R@S@S@S@R@T@>@h+c U@O@N@e V@W@,+,+  ",
"          X@++Y@Z@`@ #.#+#@###$#%#$###&#*#=#-#;#>#Y@E ,#        "};
